<?xml version="1.0" encoding="utf-8"?>
<!-- Generator: Adobe Illustrator 20.1.0, SVG Export Plug-In . SVG Version: 6.00 Build 0)  -->
<svg version="1.1" id="Layer_1" xmlns="http://www.w3.org/2000/svg" xmlns:xlink="http://www.w3.org/1999/xlink" x="0px" y="0px"
	 viewBox="-447 234.8 65 46.6" style="enable-background:new -447 234.8 65 46.6;" xml:space="preserve">
<style type="text/css">
	.st0{fill:#F4F4F4;}
</style>
<g>
	<g>
		<path class="st0" d="M-382.4,264.8V241h-7.9v10.8l0.5,3.2l-1.5-2.6l-8.4-11.4h-8.5c0,0,0.4,2.3,0.4,5.6v5h5.5l-5.5,8v10.8h8.1
			v-14.1l-0.6-3.2l1.4,3.2l11.2,14.1h5.7C-382,270.4-382.4,268.1-382.4,264.8z M-426.6,260.1l3.3-4.8c-0.5-0.4-1-0.8-1.6-1v-0.2
			c1.6-0.7,3.2-2.9,3.2-5.4c0-5.4-3.9-7.7-10.7-7.7H-447c0,0,0.4,2.3,0.4,5.6v23.8h15.4c5.8,0,10.5-2.6,10.5-9.1
			c0-0.4,0-0.8-0.1-1.1h-5.8V260.1z M-438.7,247.4h6.2c2,0,2.7,1.1,2.7,2.4c0,1.1-0.6,2.7-2.2,2.7h-6.7V247.4z M-431.8,263.7h-6.9
			v-5.4h7.7c1.6,0,2.4,1,2.4,2.6C-428.6,262.7-429.5,263.7-431.8,263.7z"/>
	</g>
</g>
<path class="st0" d="M-409.6,235.8l-13.3,22.5h8.4l-9.1,22.5l18.2-27.5h-10.3L-409.6,235.8z"/>
</svg>
