<?xml version="1.0" encoding="utf-8"?>
<!-- Generator: Adobe Illustrator 20.1.0, SVG Export Plug-In . SVG Version: 6.00 Build 0)  -->
<svg version="1.1" id="Layer_1" xmlns="http://www.w3.org/2000/svg" xmlns:xlink="http://www.w3.org/1999/xlink" x="0px" y="0px"
	 viewBox="0 0 209.3 191.3" style="enable-background:new 0 0 209.3 191.3;" xml:space="preserve">
<style type="text/css">
	.st0{fill:none;stroke:#000000;stroke-width:7;stroke-miterlimit:10;}
</style>
<path class="st0" d="M103.3,7.9C50.2,7.9,7.1,42.5,7.1,85.2c0,25.1,14.9,47.5,38,61.6c2.6,1.6,5.4,3.1,8.3,4.5
	c1.2,9,4.3,31.8,5.3,31.6c1.1-0.2,16.3-16.2,22.2-22.5c7.2,1.4,14.7,2.1,22.4,2.1c53.1,0,96.2-34.6,96.2-77.3
	C199.6,42.5,156.5,7.9,103.3,7.9z"/>
<g>
	<circle cx="66.1" cy="87.4" r="11.8"/>
	<circle cx="103.3" cy="87.4" r="11.8"/>
	<circle cx="140.6" cy="87.4" r="11.8"/>
</g>
</svg>
