<?xml version="1.0" encoding="utf-8"?>
<!-- Generator: Adobe Illustrator 20.1.0, SVG Export Plug-In . SVG Version: 6.00 Build 0)  -->
<svg version="1.1" id="Layer_1" xmlns="http://www.w3.org/2000/svg" xmlns:xlink="http://www.w3.org/1999/xlink" x="0px" y="0px"
	 viewBox="0 0 316 302" style="enable-background:new 0 0 316 302;" xml:space="preserve">
<path d="M232.2,288c-31.1,0-56.3-25.3-56.3-56.3c0-3.4,0.3-6.9,1-10.2l-65.6-32.6c-10.6,11.5-25.4,18-41.4,18
	c-31.1,0-56.3-25.3-56.3-56.3s25.3-56.3,56.3-56.3c15.9,0,30.8,6.6,41.1,17.9l65.8-32.7c-0.6-3.4-0.9-6.8-0.9-10
	c0-31.1,25.3-56.3,56.3-56.3c31.1,0,56.3,25.3,56.3,56.3c0,31.1-25.3,56.3-56.3,56.3c-16,0-30.8-6.5-41.4-18l-65.9,32.8
	c0.6,3.4,0.9,6.8,0.9,10s-0.3,6.6-0.9,10l65.9,32.8c10.6-11.5,25.4-18,41.4-18c31.1,0,56.3,25.3,56.3,56.3S263.2,288,232.2,288z
	 M232.2,206.8c-13.7,0-24.8,11.1-24.8,24.8s11.1,24.8,24.8,24.8c13.7,0,24.8-11.1,24.8-24.8S245.9,206.8,232.2,206.8z M69.8,125.7
	c-13.7,0-24.8,11.1-24.8,24.8s11.1,24.8,24.8,24.8c13.7,0,24.8-11.1,24.8-24.8S83.5,125.7,69.8,125.7z M232.2,44.5
	c-13.7,0-24.8,11.1-24.8,24.8c0,13.7,11.1,24.8,24.8,24.8c13.7,0,24.8-11.1,24.8-24.8C257,55.6,245.9,44.5,232.2,44.5z"/>
</svg>
