<?xml version="1.0" encoding="utf-8"?>
<!-- Generator: Adobe Illustrator 20.1.0, SVG Export Plug-In . SVG Version: 6.00 Build 0)  -->
<svg version="1.1" id="Layer_1" xmlns="http://www.w3.org/2000/svg" xmlns:xlink="http://www.w3.org/1999/xlink" x="0px" y="0px"
	 viewBox="0 0 156 155.3" style="enable-background:new 0 0 156 155.3;" xml:space="preserve">
<style type="text/css">
	.st0{opacity:0.6;}
	.st1{fill:#FFFFFF;}
</style>
<circle class="st0" cx="78.7" cy="77.5" r="73.9"/>
<path class="st1" d="M65,102.8c-0.2,0-0.5-0.1-0.7-0.2c-0.5-0.3-0.7-0.7-0.7-1.2V53.6c0-0.5,0.3-1,0.7-1.2c0.5-0.3,1-0.3,1.5,0
	l41.3,23.9c0.5,0.3,0.7,0.7,0.7,1.2c0,0.5-0.3,1-0.7,1.2l-41.4,23.9C65.5,102.7,65.2,102.8,65,102.8z M66.4,56.1v42.8l37-21.4
	L66.4,56.1z"/>
</svg>
